<svg fill="#4A90E2" height="65px" width="65px" version="1.1" id="Layer_1" xmlns="http://www.w3.org/2000/svg" xmlns:xlink="http://www.w3.org/1999/xlink" viewBox="0 0 512 512" xml:space="preserve" stroke="#4A90E2"><g id="SVGRepo_bgCarrier" stroke-width="0"></g><g id="SVGRepo_tracerCarrier" stroke-linecap="round" stroke-linejoin="round"></g><g id="SVGRepo_iconCarrier"> <g> <g> <path d="M467.867,349.088v-0.002H44.131v0.002H21.829V379.5h22.302h112.028l-26.557,126.239l29.76,6.261l15.584-74.08h65.847 v73.992h30.412V437.92h65.847L352.636,512l29.76-6.261L355.839,379.5h112.028h22.302v-30.412H467.867z M240.794,407.508h-59.449 l5.892-28.008h53.557V407.508z M271.207,407.508V379.5h53.557l5.892,28.008H271.207z"></path> </g> </g> <g> <g> <path d="M44.131,101.871v216.803h423.738V101.871H44.131z M175.155,219.491h-35.227V134.24h35.227V219.491z M240.794,219.491 h-35.227V134.24h35.227V219.491z M372.072,286.306H271.206v-36.403h100.866V286.306z M372.072,219.491H271.206V134.24h100.866 V219.491z"></path> </g> </g> <g> <g> <polygon points="467.869,41.046 271.206,41.046 271.206,0 240.794,0 240.794,41.046 44.131,41.046 21.829,41.046 21.829,71.458 44.131,71.458 44.131,71.46 467.869,71.46 467.869,71.458 490.171,71.458 490.171,41.046 "></polygon> </g> </g> </g></svg>